PathFileType	4	(X/Y/Z)	S:\OneDrive - The University of Tokyo\ìåëÂéˆã∆\ÉoÉCÉÅÉJ\ë™íË\hirabayashi_2\Trimmed\Trimmed_BarR40kg1.trc
DataRate	CameraRate	NumFrames	NumMarkers	Units	OrigDataRate	OrigDataStartFrame	OrigNumFrames
200.00	200.00	       9	12	mm	200.00	74	       293
Frame#	Time	BarR0			BarR50			BarR100			BarR130			BarR180			BarR230			BarL0			BarL50			BarL100			BarL130			BarL180			BarL230			
		X1	Y1	Z1	X2	Y2	Z2	X3	Y3	Z3	X4	Y4	Z4	X5	Y5	Z5	X6	Y6	Z6	X7	Y7	Z7	X8	Y8	Z8	X9	Y9	Z9	X10	Y10	Z10	X11	Y11	Z11	X12	Y12	Z12	

74	0.365	-576.48865	2754.31201	1664.17529	-603.62201	2305.07251	1653.43005	-637.39960	1851.38611	1646.81348	-660.77466	1349.65161	1646.73694	-689.72113	903.02167	1653.75598	-713.83630	455.32986	1663.98108	-1113.53296	2808.14087	1664.68774	-1140.71301	2356.46973	1667.86914	-1171.20117	1906.04272	1668.74744	-1198.94702	1404.29407	1669.18115	-1226.75244	952.63788	1668.30933	-1244.53479	506.41650	1667.63684	
75	0.370	-576.49115	2754.31445	1664.17871	-603.63684	2305.09741	1653.41724	-637.44257	1851.35974	1646.80054	-660.77679	1349.63525	1646.73450	-689.72504	903.05621	1653.55371	-713.80963	455.32233	1663.98804	-1113.57788	2808.13916	1664.67993	-1140.70300	2356.49609	1667.86426	-1171.18823	1906.06567	1668.75208	-1198.97095	1404.27625	1669.15417	-1226.74878	952.65845	1668.31775	-1244.52612	506.39282	1667.64331	
76	0.375	-576.50049	2754.30737	1664.20129	-603.62054	2305.04663	1653.42334	-637.39374	1851.42053	1646.81262	-660.77771	1349.63428	1646.73389	-689.74011	903.02429	1653.56226	-713.85065	455.35321	1663.99170	-1113.52905	2808.17432	1664.69714	-1140.69238	2356.50488	1667.87366	-1171.21106	1906.04688	1668.76990	-1198.98511	1404.27466	1669.14856	-1226.75439	952.63818	1668.32544	-1244.53381	506.40482	1667.63953	
77	0.380	-576.48035	2754.33252	1664.19482	-603.62604	2305.09937	1653.44873	-637.38928	1851.39514	1646.83154	-660.78552	1349.62085	1646.73633	-689.72925	903.01416	1653.55811	-713.84283	455.33347	1663.98145	-1113.51929	2808.16626	1664.69226	-1140.70251	2356.48657	1667.87659	-1171.19446	1906.07861	1668.76074	-1198.96045	1404.28552	1669.15125	-1226.73584	952.65601	1668.32458	-1244.51819	506.39078	1667.67224	
78	0.385	-576.49097	2754.33252	1664.18652	-603.63293	2305.07397	1653.44995	-637.40991	1851.39612	1646.83276	-660.78424	1349.62903	1646.73438	-689.72345	903.03235	1653.57385	-713.84521	455.33179	1663.98999	-1113.54797	2808.16602	1664.69702	-1140.69885	2356.49292	1667.86841	-1171.19202	1906.07324	1668.76355	-1198.96643	1404.30994	1669.15491	-1226.74512	952.65149	1668.30859	-1244.51672	506.38489	1667.65723	
79	0.390	-576.48621	2754.31152	1664.20569	-603.61359	2305.09009	1653.44885	-637.39264	1851.39807	1646.82117	-660.76697	1349.64050	1646.74524	-689.73572	903.03369	1653.55994	-713.82916	455.34427	1663.99133	-1113.54626	2808.15723	1664.68494	-1140.71497	2356.49365	1667.86523	-1171.18323	1906.04431	1668.76538	-1198.98413	1404.26318	1669.14551	-1226.73474	952.66382	1668.31921	-1244.51038	506.39432	1667.63464	
80	0.395	-576.49457	2754.30566	1664.19238	-603.60626	2305.07153	1653.43774	-637.40454	1851.39990	1646.82410	-660.78516	1349.62097	1646.74023	-689.73010	903.04181	1653.56738	-713.83154	455.32294	1663.99023	-1113.53210	2808.17188	1664.67407	-1140.69458	2356.48486	1667.88281	-1171.18201	1906.06470	1668.76208	-1198.97119	1404.25330	1669.14746	-1226.75671	952.63824	1668.31250	-1244.53333	506.41367	1667.63635	
81	0.400	-576.48975	2754.29858	1664.16211	-603.59644	2305.05908	1653.43726	-637.38892	1851.39148	1646.81506	-660.77319	1349.62976	1646.73254	-689.72595	903.01111	1653.73022	-713.83966	455.33142	1663.98450	-1113.52173	2808.15552	1664.69727	-1140.72791	2356.48096	1667.85803	-1171.18616	1906.06738	1668.76196	-1198.94946	1404.28809	1669.17358	-1226.73315	952.66003	1668.30237	-1244.51440	506.38266	1667.64136	
82	0.405	-576.47974	2754.32080	1664.19177	-603.60205	2305.08325	1653.45337	-637.41919	1851.40784	1646.80347	-660.76813	1349.63904	1646.73767	-689.73224	903.03119	1653.54810	-713.83099	455.32742	1663.98547	-1113.51038	2808.17212	1664.69824	-1140.71558	2356.47925	1667.88196	-1171.19153	1906.05872	1668.75671	-1198.96704	1404.27612	1669.13403	-1226.74304	952.63464	1668.30371	-1244.51904	506.38278	1667.63647	
